<?xml version="1.0" encoding="UTF-8" standalone="no"?>
<!DOCTYPE svg PUBLIC "-//W3C//DTD SVG 1.1//EN" "http://www.w3.org/Graphics/SVG/1.1/DTD/svg11.dtd">
<svg width="100%" height="100%" viewBox="0 0 951 951" version="1.1" xmlns="http://www.w3.org/2000/svg" xmlns:xlink="http://www.w3.org/1999/xlink" xml:space="preserve" xmlns:serif="http://www.serif.com/" style="fill-rule:evenodd;clip-rule:evenodd;stroke-linecap:round;stroke-linejoin:round;stroke-miterlimit:1.5;">
    <g transform="matrix(1,0,0,1,-799.999,-1175)">
        <g transform="matrix(0.881657,0,0,0.881657,66.1461,670.121)">
            <circle cx="1371.12" cy="1111.41" r="538.759" style="fill:rgb(146,0,255);"/>
        </g>
        <g transform="matrix(0.877273,0,0,1,-131.531,206.067)">
            <path d="M1471.8,1417.1C1471.8,1405.36 1460.93,1395.83 1447.55,1395.83L1312.2,1395.83C1298.82,1395.83 1287.95,1405.36 1287.95,1417.1L1287.95,1645.32C1287.95,1657.06 1298.82,1666.59 1312.2,1666.59L1447.55,1666.59C1460.93,1666.59 1471.8,1657.06 1471.8,1645.32L1471.8,1417.1Z" style="fill:rgb(255,0,84);stroke:white;stroke-width:6.18px;"/>
        </g>
        <g transform="matrix(0.877273,0,0,1,276.523,-20.4027)">
            <path d="M1471.8,1417.1C1471.8,1405.36 1460.93,1395.83 1447.55,1395.83L1312.2,1395.83C1298.82,1395.83 1287.95,1405.36 1287.95,1417.1L1287.95,1645.32C1287.95,1657.06 1298.82,1666.59 1312.2,1666.59L1447.55,1666.59C1460.93,1666.59 1471.8,1657.06 1471.8,1645.32L1471.8,1417.1Z" style="fill:rgb(255,0,84);stroke:white;stroke-width:6.18px;"/>
        </g>
        <g transform="matrix(-1,0,0,1,2191.68,-275.518)">
            <rect x="648.614" y="1684.45" width="67.247" height="67.247" style="fill:rgb(0,163,255);stroke:white;stroke-width:4.15px;"/>
        </g>
        <g transform="matrix(-0.61165,0,0,0.61165,1872.55,482.445)">
            <rect x="648.614" y="1684.45" width="67.247" height="67.247" style="fill:rgb(0,163,255);stroke:white;stroke-width:4.15px;"/>
        </g>
        <g transform="matrix(-0.669903,0,0,0.669903,1972.35,446.999)">
            <rect x="648.614" y="1684.45" width="67.247" height="67.247" style="fill:rgb(0,163,255);stroke:white;stroke-width:4.15px;"/>
        </g>
        <path d="M1200,1739.98L1277.53,1739.98L1277.53,1499.22L1350.98,1499.22" style="fill:none;stroke:white;stroke-width:21.27px;"/>
        <g transform="matrix(1,0,0,1,378.674,-49.6194)">
            <rect x="648.614" y="1684.45" width="67.247" height="67.247" style="fill:rgb(1,0,255);stroke:white;stroke-width:4.15px;"/>
        </g>
        <g transform="matrix(0.61165,0,0,0.61165,697.811,708.344)">
            <rect x="648.614" y="1684.45" width="67.247" height="67.247" style="fill:rgb(1,0,255);stroke:white;stroke-width:4.15px;"/>
        </g>
        <g transform="matrix(0.669903,0,0,0.669903,598.003,672.898)">
            <rect x="648.614" y="1684.45" width="67.247" height="67.247" style="fill:rgb(1,0,255);stroke:white;stroke-width:4.15px;"/>
        </g>
    </g>
</svg>
